<?xml version="1.0" encoding="UTF-8"?>
<!-- Generator: Adobe Illustrator 22.1.0, SVG Export Plug-In . SVG Version: 6.00 Build 0)  -->
<svg width="143.87" height="99.198" version="1.1" viewBox="0 0 143.86574 99.19752" xml:space="preserve" xmlns="http://www.w3.org/2000/svg" xmlns:cc="http://creativecommons.org/ns#" xmlns:dc="http://purl.org/dc/elements/1.1/" xmlns:rdf="http://www.w3.org/1999/02/22-rdf-syntax-ns#" xmlns:xlink="http://www.w3.org/1999/xlink"><metadata><rdf:RDF><cc:Work rdf:about=""><dc:format>image/svg+xml</dc:format><dc:type rdf:resource="http://purl.org/dc/dcmitype/StillImage"/><dc:title/></cc:Work></rdf:RDF></metadata><style type="text/css">
	.st0{clip-path:url(#SVGID_2_);}
	.st1{fill:#323E48;}
	.st2{clip-path:url(#SVGID_4_);}
	.st3{fill:url(#SVGID_5_);}
</style><g transform="matrix(1.3333 0 0 -1.3333 -.26399 287.99)"><defs><rect id="SVGID_1_" x="-287.5" y="-14.4" width="983.6" height="384"/></defs><clipPath id="SVGID_2_"><use width="100%" height="100%" xlink:href="#SVGID_1_"/></clipPath><g class="st0" clip-path="url(#SVGID_2_)"><g transform="translate(85.498,75.523)"><path class="st1" d="m-72.4 69.6c-4 2.2-7.2 5.3-9.5 9.2s-3.4 8.3-3.4 13.3 1.1 9.4 3.4 13.3 5.4 6.9 9.5 9.1c4 2.2 8.6 3.3 13.7 3.3 4.6 0 8.6-0.9 12.2-2.8 3.6-1.8 6.3-4.5 8.3-8l-6.9-4.5c-1.6 2.4-3.5 4.2-5.9 5.4-2.3 1.2-4.9 1.8-7.8 1.8-3.3 0-6.3-0.7-8.9-2.2s-4.7-3.5-6.2-6.2-2.2-5.8-2.2-9.3 0.7-6.7 2.2-9.4 3.5-4.8 6.2-6.2c2.6-1.5 5.6-2.2 8.9-2.2 2.9 0 5.4 0.6 7.8 1.8 2.3 1.2 4.3 3 5.9 5.4l6.9-4.4c-2-3.5-4.7-6.2-8.3-8-3.6-1.9-7.6-2.8-12.2-2.8-5.1 0-9.7 1.1-13.7 3.4" fill="#323e48"/></g></g><defs><path id="SVGID_3_" d="m23.7 216-12.3-21.4c2.7 1.4 5.6 2.3 8.6 2.9l7.2 12.5h22.9l11.5-19.8-11.5-19.8h-22.9l-5.2 9c-0.6-0.2-1.2-0.5-1.7-0.8-1.3-0.7-2.3-1.6-3.2-2.7l6.7-11.5h26.4l13.2-22.8h29.8l14.9 25.8-14.9 25.8h-26.5l-13.1 22.8zm31.6-48.7 11.4 19.8h22.9l11.5-19.8-11.5-19.8h-22.9z"/></defs><clipPath id="SVGID_4_"><use width="100%" height="100%" xlink:href="#SVGID_3_"/></clipPath><g class="st2" clip-path="url(#SVGID_4_)"><linearGradient id="SVGID_5_" x1="-45.363" x2="-44.363" y1="-206.97" y2="-206.97" gradientTransform="matrix(87.296 87.296 87.296 -87.296 22061 -13953)" gradientUnits="userSpaceOnUse"><stop stop-color="#FFD100" offset="0"/><stop stop-color="#F38B00" offset="1"/></linearGradient><path class="st3" d="m23.7 216-12.3-21.4c2.7 1.4 5.6 2.3 8.6 2.9l7.2 12.5h22.9l11.5-19.8-11.5-19.8h-22.9l-5.2 9c-0.6-0.2-1.2-0.5-1.7-0.8-1.3-0.7-2.3-1.6-3.2-2.7l6.7-11.5h26.4l13.2-22.8h29.8l14.9 25.8-14.9 25.8h-26.5l-13.1 22.8zm31.6-48.7 11.4 19.8h22.9l11.5-19.8-11.5-19.8h-22.9z" fill="url(#SVGID_5_)"/></g></g></svg>
