<?xml version="1.0" encoding="UTF-8"?>
<!-- Generator: Adobe Illustrator 22.1.0, SVG Export Plug-In . SVG Version: 6.00 Build 0)  -->
<svg width="545.32" height="99.198" version="1.1" viewBox="0 0 545.31971 99.19752" xml:space="preserve" xmlns="http://www.w3.org/2000/svg" xmlns:cc="http://creativecommons.org/ns#" xmlns:dc="http://purl.org/dc/elements/1.1/" xmlns:rdf="http://www.w3.org/1999/02/22-rdf-syntax-ns#" xmlns:xlink="http://www.w3.org/1999/xlink"><metadata><rdf:RDF><cc:Work rdf:about=""><dc:format>image/svg+xml</dc:format><dc:type rdf:resource="http://purl.org/dc/dcmitype/StillImage"/><dc:title/></cc:Work></rdf:RDF></metadata><style type="text/css">
	.st0{clip-path:url(#SVGID_2_);}
	.st1{fill:#FFFFFF;}
	.st2{clip-path:url(#SVGID_4_);}
</style><g transform="matrix(1.3333 0 0 -1.3333 -.26399 287.99)"><defs><rect id="SVGID_1_" x="-287.5" y="-14.4" width="983.6" height="384"/></defs><clipPath id="SVGID_2_"><use width="100%" height="100%" xlink:href="#SVGID_1_"/></clipPath><g class="st0" clip-path="url(#SVGID_2_)"><g transform="translate(85.498,75.523)"><path class="st1" d="m-72.4 69.6c-4 2.2-7.2 5.3-9.5 9.2s-3.4 8.3-3.4 13.3 1.1 9.4 3.4 13.3 5.4 6.9 9.5 9.1c4 2.2 8.6 3.3 13.7 3.3 4.6 0 8.6-0.9 12.2-2.8 3.6-1.8 6.3-4.5 8.3-8l-6.9-4.5c-1.6 2.4-3.5 4.2-5.9 5.4-2.3 1.2-4.9 1.8-7.8 1.8-3.3 0-6.3-0.7-8.9-2.2s-4.7-3.5-6.2-6.2-2.2-5.8-2.2-9.3 0.7-6.7 2.2-9.4 3.5-4.8 6.2-6.2c2.6-1.5 5.6-2.2 8.9-2.2 2.9 0 5.4 0.6 7.8 1.8 2.3 1.2 4.3 3 5.9 5.4l6.9-4.4c-2-3.5-4.7-6.2-8.3-8-3.6-1.9-7.6-2.8-12.2-2.8-5.1 0-9.7 1.1-13.7 3.4m362.2-1.7c-3.8 1.1-6.8 2.5-8.9 4.2l3.8 7.2c2.2-1.6 4.9-2.8 8.1-3.8 3.2-0.9 6.4-1.4 9.6-1.4 8 0 12 2.3 12 6.8 0 1.5-0.5 2.7-1.6 3.6s-2.4 1.5-4 1.9-3.9 0.9-6.9 1.4c-4.1 0.6-7.4 1.4-9.9 2.2-2.6 0.8-4.8 2.2-6.6 4.2s-2.8 4.7-2.8 8.3c0 4.6 1.9 8.2 5.7 11s8.9 4.1 15.3 4.1c3.4 0 6.7-0.4 10.1-1.2s6.1-1.9 8.3-3.3l-3.9-7.2c-4.1 2.7-9 4-14.5 4-3.9 0-6.8-0.6-8.8-1.9s-3-2.9-3-5c0-1.6 0.6-2.9 1.7-3.9 1.1-0.9 2.5-1.6 4.2-2.1 1.7-0.4 4-1 7.1-1.5 4.1-0.7 7.3-1.4 9.8-2.2s4.6-2.1 6.4-4 2.7-4.6 2.7-8c0-4.6-1.9-8.2-5.8-10.9s-9.2-4-15.9-4c-4.5-0.2-8.4 0.4-12.2 1.5m-14.3 49.3v-50.4h-8.6v7.6c-1.8-2.6-4.3-4.6-7.3-6s-6.3-2.1-9.8-2.1c-6.7 0-12 1.9-15.9 5.6s-5.8 9.2-5.8 16.4v29h9.1v-28.1c0-4.9 1.2-8.6 3.5-11.1s5.7-3.8 10.1-3.8c4.8 0 8.6 1.5 11.4 4.4s4.2 7 4.2 12.4v26zm-86.2-49.3c-3.8 1.1-6.8 2.5-8.9 4.2l3.8 7.2c2.2-1.6 4.9-2.8 8.1-3.8 3.2-0.9 6.4-1.4 9.6-1.4 8 0 12 2.3 12 6.8 0 1.5-0.5 2.7-1.6 3.6s-2.4 1.5-4 1.9-3.9 0.9-6.9 1.4c-4.1 0.6-7.4 1.4-9.9 2.2-2.6 0.8-4.8 2.2-6.6 4.2s-2.8 4.7-2.8 8.3c0 4.6 1.9 8.2 5.7 11s8.9 4.1 15.3 4.1c3.4 0 6.7-0.4 10.1-1.2s6.1-1.9 8.3-3.3l-3.9-7.2c-4.1 2.7-9 4-14.5 4-3.9 0-6.8-0.6-8.8-1.9s-3-2.9-3-5c0-1.6 0.6-2.9 1.7-3.9 1.1-0.9 2.5-1.6 4.2-2.1 1.7-0.4 4-1 7.1-1.5 4.1-0.7 7.3-1.4 9.8-2.2s4.6-2.1 6.4-4 2.7-4.6 2.7-8c0-4.6-1.9-8.2-5.8-10.9s-9.2-4-15.9-4c-4.5-0.2-8.4 0.4-12.2 1.5m-19.5 44.2c3.8-3.7 5.7-9.1 5.7-16.3v-29h-9.1v27.9c0 4.9-1.2 8.6-3.5 11-2.3 2.5-5.7 3.7-10.1 3.7-4.9 0-8.8-1.4-11.7-4.3s-4.3-7-4.3-12.4v-25.9h-9.1v50.4h8.7v-7.6c1.8 2.6 4.3 4.6 7.5 6 3.1 1.4 6.7 2.1 10.7 2.1 6.4-0.1 11.5-1.9 15.2-5.6m-82.4-4.3c-2.5-1.5-4.4-3.5-5.8-6.1s-2.1-5.7-2.1-9.2v-1l32.2 6.1c-0.8 3.7-2.7 6.7-5.5 8.9-2.9 2.3-6.3 3.4-10.3 3.4-3.2 0-6-0.7-8.5-2.1m25.1-27.5 4.9-5.9c-2.2-2.7-5-4.7-8.4-6.1s-7.2-2.1-11.4-2.1c-5.3 0-10 1.1-14.2 3.3-4.1 2.2-7.3 5.2-9.5 9.2-2.2 3.9-3.4 8.4-3.4 13.3s1.1 9.3 3.3 13.2 5.2 7 9 9.2 8.2 3.3 13 3.3c4.6 0 8.7-1 12.4-3.1s6.7-5 8.9-8.7 3.4-8 3.4-12.9l-40-7.8c1.3-3.5 3.4-6.2 6.4-8.1s6.6-2.9 10.9-2.9c6.2 0 11 2 14.7 6.1m-76.6-12.4c-3.8 1.1-6.8 2.5-8.9 4.2l3.8 7.2c2.2-1.6 4.9-2.8 8.1-3.8 3.2-0.9 6.4-1.4 9.6-1.4 8 0 12 2.3 12 6.8 0 1.5-0.5 2.7-1.6 3.6s-2.4 1.5-4 1.9-3.9 0.9-6.9 1.4c-4.1 0.6-7.4 1.4-9.9 2.2-2.6 0.8-4.8 2.2-6.6 4.2s-2.8 4.7-2.8 8.3c0 4.6 1.9 8.2 5.7 11s8.9 4.1 15.3 4.1c3.4 0 6.7-0.4 10.1-1.2s6.1-1.9 8.3-3.3l-3.9-7.2c-4.1 2.7-9 4-14.5 4-3.9 0-6.8-0.6-8.8-1.9s-3-2.9-3-5c0-1.6 0.6-2.9 1.7-3.9 1.1-0.9 2.5-1.6 4.2-2.1 1.7-0.4 4-1 7.1-1.5 4.1-0.7 7.3-1.4 9.8-2.2s4.6-2.1 6.4-4 2.7-4.6 2.7-8c0-4.6-1.9-8.2-5.8-10.9s-9.2-4-15.9-4c-4.4-0.2-8.4 0.4-12.2 1.5" fill="#fff"/></g></g><defs><path id="SVGID_3_" d="m23.7 216-12.3-21.4c2.7 1.4 5.6 2.3 8.6 2.9l7.2 12.5h22.9l11.5-19.8-11.5-19.8h-22.9l-5.2 9c-0.6-0.2-1.2-0.5-1.7-0.8-1.3-0.7-2.3-1.6-3.2-2.7l6.7-11.5h26.4l13.2-22.8h29.8l14.9 25.8-14.9 25.8h-26.5l-13.1 22.8zm31.6-48.7 11.4 19.8h22.9l11.5-19.8-11.5-19.8h-22.9z"/></defs><clipPath id="SVGID_4_"><use width="100%" height="100%" xlink:href="#SVGID_3_"/></clipPath><g class="st2" clip-path="url(#SVGID_4_)"><path class="st1" d="m23.7 216-12.3-21.4c2.7 1.4 5.6 2.3 8.6 2.9l7.2 12.5h22.9l11.5-19.8-11.5-19.8h-22.9l-5.2 9c-0.6-0.2-1.2-0.5-1.7-0.8-1.3-0.7-2.3-1.6-3.2-2.7l6.7-11.5h26.4l13.2-22.8h29.8l14.9 25.8-14.9 25.8h-26.5l-13.1 22.8zm31.6-48.7 11.4 19.8h22.9l11.5-19.8-11.5-19.8h-22.9z" fill="#fff"/></g></g></svg>
