<?xml version="1.0" encoding="utf-8"?>
<!-- Generator: Adobe Illustrator 23.0.0, SVG Export Plug-In . SVG Version: 6.00 Build 0)  -->
<svg version="1.1"
	 id="Layer_1" xmlns:cc="http://creativecommons.org/ns#" xmlns:dc="http://purl.org/dc/elements/1.1/" xmlns:rdf="http://www.w3.org/1999/02/22-rdf-syntax-ns#"
	 xmlns="http://www.w3.org/2000/svg" xmlns:xlink="http://www.w3.org/1999/xlink" x="0px" y="0px" viewBox="0 0 545.3 99.2"
	 style="enable-background:new 0 0 545.3 99.2;" xml:space="preserve">
<style type="text/css">
	.st0{fill:#FFFFFF;}
	.st1{clip-path:url(#SVGID_2_);}
</style>
<g>
	<g>
		<g transform="translate(85.498,75.523)">
			<path class="st0" d="M-68.3,19c-5.3-3-9.6-7.1-12.7-12.3S-85.5-4.4-85.5-11S-84-23.6-81-28.8s7.2-9.2,12.7-12.1
				c5.3-2.9,11.5-4.4,18.3-4.4c6.1,0,11.5,1.2,16.3,3.7c4.8,2.4,8.4,6,11.1,10.7l-9.2,6c-2.1-3.2-4.7-5.6-7.9-7.2
				c-3.1-1.6-6.5-2.4-10.4-2.4c-4.4,0-8.4,0.9-11.9,2.9s-6.3,4.7-8.3,8.3s-2.9,7.7-2.9,12.4s0.9,8.9,2.9,12.5S-65.6,8-62,9.9
				c3.5,2,7.5,2.9,11.9,2.9c3.9,0,7.2-0.8,10.4-2.4c3.1-1.6,5.7-4,7.9-7.2l9.2,5.9c-2.7,4.7-6.3,8.3-11.1,10.7
				c-4.8,2.5-10.1,3.7-16.3,3.7C-56.8,23.5-63,22-68.3,19 M414.6,21.2c-5.1-1.5-9.1-3.3-11.9-5.6l5.1-9.6c2.9,2.1,6.5,3.7,10.8,5.1
				c4.3,1.2,8.5,1.9,12.8,1.9c10.7,0,16-3.1,16-9.1c0-2-0.7-3.6-2.1-4.8c-1.5-1.2-3.2-2-5.3-2.5s-5.2-1.2-9.2-1.9
				c-5.5-0.8-9.9-1.9-13.2-2.9c-3.5-1.1-6.4-2.9-8.8-5.6s-3.7-6.3-3.7-11.1c0-6.1,2.5-10.9,7.6-14.7c5.1-3.7,11.9-5.5,20.4-5.5
				c4.5,0,8.9,0.5,13.5,1.6s8.1,2.5,11.1,4.4l-5.2,9.6c-5.5-3.6-12-5.3-19.3-5.3c-5.2,0-9.1,0.8-11.7,2.5c-2.7,1.7-4,3.9-4,6.7
				c0,2.1,0.8,3.9,2.3,5.2c1.5,1.2,3.3,2.1,5.6,2.8c2.3,0.5,5.3,1.3,9.5,2c5.5,0.9,9.7,1.9,13.1,2.9s6.1,2.8,8.5,5.3
				s3.6,6.1,3.6,10.7c0,6.1-2.5,10.9-7.7,14.5s-12.3,5.3-21.2,5.3C424.9,23.5,419.7,22.7,414.6,21.2 M395.6-44.5v67.2h-11.5V12.6
				c-2.4,3.5-5.7,6.1-9.7,8s-8.4,2.8-13.1,2.8c-8.9,0-16-2.5-21.2-7.5c-5.2-4.9-7.7-12.3-7.7-21.9v-38.7h12.1v37.5
				c0,6.5,1.6,11.5,4.7,14.8s7.6,5.1,13.5,5.1c6.4,0,11.5-2,15.2-5.9s5.6-9.3,5.6-16.5v-34.7L395.6-44.5z M280.6,21.2
				c-5.1-1.5-9.1-3.3-11.9-5.6l5.1-9.6c2.9,2.1,6.5,3.7,10.8,5.1c4.3,1.2,8.5,1.9,12.8,1.9c10.7,0,16-3.1,16-9.1
				c0-2-0.7-3.6-2.1-4.8s-3.2-2-5.3-2.5c-2.1-0.5-5.2-1.2-9.2-1.9c-5.5-0.8-9.9-1.9-13.2-2.9c-3.5-1.1-6.4-2.9-8.8-5.6
				s-3.7-6.3-3.7-11.1c0-6.1,2.5-10.9,7.6-14.7c5.1-3.7,11.9-5.5,20.4-5.5c4.5,0,8.9,0.5,13.5,1.6c4.5,1.1,8.1,2.5,11.1,4.4
				l-5.2,9.6c-5.5-3.6-12-5.3-19.3-5.3c-5.2,0-9.1,0.8-11.7,2.5c-2.7,1.7-4,3.9-4,6.7c0,2.1,0.8,3.9,2.3,5.2
				c1.5,1.2,3.3,2.1,5.6,2.8c2.3,0.5,5.3,1.3,9.5,2c5.5,0.9,9.7,1.9,13.1,2.9s6.1,2.8,8.5,5.3s3.6,6.1,3.6,10.7
				c0,6.1-2.5,10.9-7.7,14.5s-12.3,5.3-21.2,5.3C290.9,23.5,285.7,22.7,280.6,21.2 M254.6-37.7c5.1,4.9,7.6,12.1,7.6,21.7v38.7
				h-12.1v-37.2c0-6.5-1.6-11.5-4.7-14.7c-3.1-3.3-7.6-4.9-13.5-4.9c-6.5,0-11.7,1.9-15.6,5.7s-5.7,9.3-5.7,16.5v34.5h-12.1v-67.2
				h11.6v10.1c2.4-3.5,5.7-6.1,10-8c4.1-1.9,8.9-2.8,14.3-2.8C242.9-45,249.7-42.6,254.6-37.7 M144.8-32c-3.3,2-5.9,4.7-7.7,8.1
				s-2.8,7.6-2.8,12.3v1.3l42.9-8.1c-1.1-4.9-3.6-8.9-7.3-11.9c-3.9-3.1-8.4-4.5-13.7-4.5C151.8-34.8,148.1-33.8,144.8-32
				 M178.2,4.7l6.5,7.9c-2.9,3.6-6.7,6.3-11.2,8.1c-4.5,1.9-9.6,2.8-15.2,2.8c-7.1,0-13.3-1.5-18.9-4.4c-5.5-2.9-9.7-6.9-12.7-12.3
				c-2.9-5.2-4.5-11.2-4.5-17.7s1.5-12.4,4.4-17.6s6.9-9.3,12-12.3c5.1-2.9,10.9-4.4,17.3-4.4c6.1,0,11.6,1.3,16.5,4.1
				s8.9,6.7,11.9,11.6c2.9,4.9,4.5,10.7,4.5,17.2L135.6-1.8c1.7,4.7,4.5,8.3,8.5,10.8s8.8,3.9,14.5,3.9
				C166.9,12.8,173.3,10.2,178.2,4.7 M76.1,21.2c-5.1-1.5-9.1-3.3-11.9-5.6L69.3,6c2.9,2.1,6.5,3.7,10.8,5.1
				c4.3,1.2,8.5,1.9,12.8,1.9c10.7,0,16-3.1,16-9.1c0-2-0.7-3.6-2.1-4.8c-1.5-1.2-3.2-2-5.3-2.5s-5.2-1.2-9.2-1.9
				C86.8-6.1,82.4-7.2,79-8.2c-3.5-1.1-6.4-2.9-8.8-5.6s-3.7-6.3-3.7-11.1c0-6.1,2.5-10.9,7.6-14.7C79.2-43.3,86-45,94.5-45
				c4.5,0,8.9,0.5,13.5,1.6c4.5,1.1,8.1,2.5,11.1,4.4l-5.2,9.6c-5.5-3.6-12-5.3-19.3-5.3c-5.2,0-9.1,0.8-11.7,2.5
				c-2.7,1.7-4,3.9-4,6.7c0,2.1,0.8,3.9,2.3,5.2c1.5,1.2,3.3,2.1,5.6,2.8c2.3,0.5,5.3,1.3,9.5,2c5.5,0.9,9.7,1.9,13.1,2.9
				c3.3,1.1,6.1,2.8,8.5,5.3s3.6,6.1,3.6,10.7c0,6.1-2.5,10.9-7.7,14.5s-12.3,5.3-21.2,5.3C86.5,23.5,81.2,22.7,76.1,21.2"/>
		</g>
	</g>
	<g>
		<g>
			<defs>
				<path id="SVGID_1_" d="M31.3,0L14.9,28.5c3.6-1.9,7.5-3.1,11.5-3.9L36,8h30.5l15.3,26.4L66.5,60.8H36l-6.9-12
					c-0.8,0.3-1.6,0.7-2.3,1.1c-1.7,0.9-3.1,2.1-4.3,3.6l8.9,15.3h35.2l17.6,30.4H124l19.9-34.4L124,30.4H88.7L71.2,0H31.3z
					 M73.5,64.9l15.2-26.4h30.5l15.3,26.4l-15.3,26.4H88.7L73.5,64.9z"/>
			</defs>
			<clipPath id="SVGID_2_">
				<use xlink:href="#SVGID_1_"  style="overflow:visible;"/>
			</clipPath>
			<g class="st1">
				<path class="st0" d="M31.3,0L14.9,28.5c3.6-1.9,7.5-3.1,11.5-3.9L36,8h30.5l15.3,26.4L66.5,60.8H36l-6.9-12
					c-0.8,0.3-1.6,0.7-2.3,1.1c-1.7,0.9-3.1,2.1-4.3,3.6l8.9,15.3h35.2l17.6,30.4H124l19.9-34.4L124,30.4H88.7L71.2,0H31.3z
					 M73.5,64.9l15.2-26.4h30.5l15.3,26.4l-15.3,26.4H88.7L73.5,64.9z"/>
			</g>
		</g>
	</g>
</g>
</svg>
